<?xml version="1.0" encoding="UTF-8" ?>
<!DOCTYPE svg PUBLIC "-//W3C//DTD SVG 1.1//EN" "http://www.w3.org/Graphics/SVG/1.1/DTD/svg11.dtd">
<svg width="512pt" height="512pt" viewBox="0 0 512 512" version="1.1" xmlns="http://www.w3.org/2000/svg">
<g id="#1a3a73ff">
<path fill="#1a3a73" opacity="1.00" d=" M 142.28 58.26 C 155.60 51.67 171.23 50.97 185.57 54.18 C 198.11 56.68 209.95 61.99 221.28 67.64 L 221.45 68.35 C 230.55 72.36 238.52 78.59 246.66 84.25 C 248.52 85.44 250.13 86.96 251.67 88.54 C 252.56 88.53 253.45 88.53 254.34 88.53 C 256.35 86.32 258.75 84.55 261.26 82.94 C 266.52 79.12 271.79 75.21 277.54 72.15 C 279.70 70.59 281.95 69.06 284.55 68.35 L 284.72 67.64 C 287.02 67.23 288.75 65.52 290.83 64.58 C 301.66 59.54 312.96 55.23 324.81 53.33 C 338.21 51.11 352.46 52.43 364.67 58.69 C 368.24 60.43 371.55 62.64 374.60 65.19 C 382.09 70.86 387.68 78.82 391.77 87.21 C 402.41 109.36 403.76 134.79 401.53 158.92 C 401.29 163.97 400.38 168.97 400.21 174.04 C 415.55 179.56 430.09 187.34 443.48 196.63 C 459.27 208.05 473.92 222.90 479.74 241.96 C 484.02 255.31 482.66 270.10 476.79 282.75 C 469.76 298.26 457.12 310.45 443.50 320.28 C 430.12 329.60 415.55 337.37 400.21 342.89 C 400.19 347.67 401.30 352.35 401.56 357.10 C 403.66 378.95 402.79 401.58 395.23 422.39 C 390.26 436.15 381.23 448.80 368.56 456.42 C 354.82 464.91 337.74 466.29 322.13 463.32 C 296.34 458.31 273.49 444.12 253.01 428.21 C 235.78 441.58 217.07 453.60 196.15 460.22 C 180.12 465.28 162.29 466.92 146.32 460.78 C 130.78 454.96 118.81 441.77 112.48 426.65 C 103.89 406.33 102.46 383.75 104.00 361.97 C 104.33 355.58 105.57 349.28 105.80 342.89 C 87.19 336.07 69.49 326.36 54.10 313.83 C 41.05 302.83 29.53 288.88 25.44 271.97 C 21.36 256.51 24.88 239.69 33.43 226.36 C 38.84 217.42 46.27 209.94 54.09 203.10 C 69.51 190.57 87.21 180.86 105.82 174.01 C 104.49 158.71 102.58 143.34 104.03 127.97 C 105.15 113.99 107.95 99.87 114.22 87.23 C 120.03 74.84 129.79 64.09 142.28 58.26 M 147.65 75.80 C 137.33 82.21 130.39 92.92 126.90 104.40 C 120.44 124.77 121.65 146.56 123.76 167.51 C 145.97 160.12 169.05 155.71 192.18 152.41 C 205.89 134.21 221.22 117.21 238.04 101.83 C 237.89 101.34 237.58 100.36 237.43 99.87 C 233.89 97.79 230.80 95.06 227.34 92.85 C 218.20 86.55 208.40 81.26 198.21 76.84 C 182.32 70.55 163.34 67.11 147.65 75.80 M 315.41 74.20 C 298.27 79.57 283.07 89.50 268.58 99.87 C 268.42 100.36 268.12 101.34 267.96 101.83 C 284.78 117.21 300.10 134.20 313.82 152.40 C 336.95 155.71 360.03 160.12 382.23 167.51 C 384.22 148.08 385.33 128.06 380.43 108.94 C 377.17 95.83 370.12 83.04 358.35 75.80 C 345.24 68.50 329.24 69.69 315.41 74.20 M 223.26 143.36 C 221.63 145.43 219.48 147.21 218.69 149.82 C 241.52 148.25 264.46 148.24 287.29 149.82 C 286.86 148.63 286.35 147.45 285.45 146.54 C 275.32 134.78 264.78 123.30 253.00 113.16 C 242.25 122.38 232.62 132.77 223.26 143.36 M 207.06 169.60 C 205.08 169.95 202.50 169.41 201.07 171.16 C 181.74 197.57 165.38 226.11 151.90 255.92 C 150.70 257.74 151.38 259.78 152.31 261.52 C 165.65 291.14 181.99 319.43 201.16 345.66 C 202.40 347.65 204.94 347.25 206.92 347.48 C 238.85 350.58 271.13 350.48 303.02 347.08 C 304.45 346.59 305.19 345.14 306.09 344.03 C 324.93 317.78 341.21 289.66 354.29 260.11 C 355.36 258.43 354.39 256.60 353.73 254.99 C 340.21 225.52 324.06 197.20 304.84 171.06 C 303.39 169.44 300.91 169.94 298.98 169.60 C 268.43 166.66 237.61 166.65 207.06 169.60 M 127.22 185.81 C 130.10 201.18 134.93 216.10 139.94 230.89 C 140.37 232.12 140.75 233.47 141.92 234.25 C 147.41 222.62 153.54 211.27 160.18 200.26 C 164.19 193.08 168.59 186.11 173.19 179.29 C 174.37 177.62 175.45 175.86 176.20 173.95 C 159.58 176.45 143.21 180.64 127.22 185.81 M 329.80 173.95 C 330.58 175.85 331.63 177.63 332.81 179.31 C 337.41 186.12 341.81 193.09 345.82 200.27 C 349.07 205.43 352.02 210.78 354.83 216.20 C 358.23 222.05 361.19 228.14 364.08 234.25 C 364.90 233.58 365.46 232.74 365.76 231.73 C 370.91 216.67 375.83 201.46 378.78 185.80 C 362.78 180.66 346.43 176.44 329.80 173.95 M 56.93 225.96 C 48.33 235.07 41.62 247.12 42.34 260.00 C 42.52 272.64 49.77 283.80 58.10 292.77 C 69.70 304.45 83.98 313.08 98.76 320.13 C 102.36 321.61 105.86 323.34 109.46 324.82 C 112.58 312.15 115.84 299.51 120.05 287.15 C 120.40 286.15 120.73 285.15 121.06 284.15 C 123.29 277.79 125.58 271.44 128.09 265.18 C 129.03 262.30 131.59 259.35 129.84 256.25 C 121.16 235.58 114.55 214.08 109.48 192.25 C 90.30 200.45 71.23 210.44 56.93 225.96 M 376.18 256.22 C 374.44 259.33 376.97 262.29 377.91 265.18 C 380.79 272.43 383.49 279.75 385.93 287.16 C 390.22 299.49 393.39 312.15 396.54 324.81 C 415.00 317.14 433.01 307.43 447.38 293.31 C 452.43 287.88 456.96 281.94 460.19 275.23 C 462.15 270.01 463.90 264.59 463.67 258.94 C 464.04 248.34 459.15 238.38 452.79 230.19 C 438.18 212.36 417.41 201.12 396.51 192.26 C 391.46 214.08 384.84 235.56 376.18 256.22 M 141.09 282.61 C 138.36 289.57 136.24 296.74 133.90 303.83 C 133.32 306.19 132.71 308.54 131.89 310.82 C 130.18 317.61 128.28 324.36 127.11 331.27 C 143.16 336.44 159.56 340.84 176.29 343.04 C 164.41 324.82 153.08 306.20 143.59 286.61 C 142.94 285.17 142.12 283.81 141.09 282.61 M 362.45 286.53 C 352.94 306.15 341.60 324.80 329.71 343.05 C 343.44 341.38 356.84 337.74 370.16 334.11 C 373.06 333.12 376.02 332.32 378.90 331.27 C 377.25 321.98 374.64 312.91 372.10 303.83 C 369.79 296.75 367.64 289.60 364.93 282.65 C 363.81 283.74 363.09 285.13 362.45 286.53 M 123.69 349.40 C 121.67 369.56 120.49 390.37 125.93 410.13 C 129.28 421.66 135.43 432.85 145.53 439.74 C 153.86 445.25 164.21 447.10 174.05 446.06 C 198.09 443.37 219.52 430.38 238.35 415.92 C 233.28 410.22 227.16 405.56 222.17 399.78 C 211.83 389.10 202.13 377.81 193.09 366.01 C 191.34 363.35 187.69 364.03 184.98 363.43 C 164.25 360.30 143.62 356.00 123.69 349.40 M 320.90 363.44 C 318.24 364.01 314.70 363.39 312.95 365.96 C 303.88 377.80 294.15 389.12 283.78 399.84 C 278.81 405.60 272.69 410.23 267.66 415.93 C 286.51 430.40 307.96 443.39 332.03 446.07 C 343.95 447.35 356.92 444.26 365.53 435.55 C 374.14 427.57 378.78 416.27 381.34 405.03 C 385.27 386.76 384.19 367.87 382.29 349.43 C 362.32 355.98 341.68 360.36 320.90 363.44 M 218.69 367.17 C 219.81 370.15 222.35 372.20 224.29 374.63 C 233.32 384.85 242.73 394.76 253.01 403.76 C 260.32 397.17 267.51 390.41 274.05 383.03 C 278.60 377.89 283.91 373.17 287.30 367.17 C 282.22 367.33 277.14 367.71 272.06 367.73 C 254.28 368.96 236.47 367.88 218.69 367.17 Z" />
<path fill="#1a3a73" opacity="1.00" d=" M 241.54 186.84 C 255.06 185.12 269.10 186.69 281.60 192.29 C 297.98 199.42 311.58 212.70 319.04 228.94 C 325.36 242.27 327.11 257.52 324.89 272.05 C 322.26 288.33 313.93 303.61 301.68 314.65 C 288.29 326.92 270.20 334.04 252.00 333.77 C 233.81 334.05 215.74 326.93 202.34 314.68 C 190.33 303.86 182.06 288.96 179.27 273.03 C 176.53 256.99 178.87 240.00 186.60 225.61 C 197.32 204.89 218.41 189.99 241.54 186.84 M 246.24 202.17 C 229.63 203.67 214.01 212.88 204.47 226.53 C 194.29 240.76 191.22 259.73 196.26 276.47 C 200.34 290.61 210.14 302.94 222.86 310.29 C 235.47 317.68 250.93 319.93 265.15 316.61 C 279.66 313.34 292.66 304.12 300.74 291.66 C 309.87 277.79 312.50 259.89 307.86 243.96 C 304.19 230.87 295.64 219.28 284.37 211.72 C 273.29 204.21 259.54 200.81 246.24 202.17 Z" />
</g>
<g id="#ffffffff">
<path fill="#ffffff" opacity="1.00" d=" M 246.24 202.17 C 259.54 200.81 273.29 204.21 284.37 211.72 C 295.64 219.28 304.19 230.87 307.86 243.96 C 312.50 259.89 309.87 277.79 300.74 291.66 C 292.66 304.12 279.66 313.34 265.15 316.61 C 250.93 319.93 235.47 317.68 222.86 310.29 C 210.14 302.94 200.34 290.61 196.26 276.47 C 191.22 259.73 194.29 240.76 204.47 226.53 C 214.01 212.88 229.63 203.67 246.24 202.17 M 221.94 229.88 C 212.99 238.62 208.31 251.51 209.56 263.96 C 210.46 274.26 215.35 284.13 222.93 291.15 C 232.42 300.19 246.30 304.43 259.22 302.09 C 268.84 300.48 277.80 295.40 284.18 288.03 C 292.65 278.44 296.42 264.90 294.01 252.32 C 280.22 252.25 266.44 252.28 252.65 252.31 C 252.63 257.88 252.57 263.46 252.69 269.04 C 259.80 269.06 266.91 269.01 274.02 269.08 C 271.20 274.99 266.22 280.02 259.93 282.08 C 252.91 284.59 244.95 283.33 238.74 279.33 C 238.76 280.22 238.79 282.00 238.80 282.89 C 233.64 282.92 228.49 282.92 223.34 282.89 C 223.40 265.95 223.37 249.01 223.35 232.07 C 228.49 232.06 233.63 232.05 238.77 232.08 C 238.76 234.80 238.75 237.51 238.74 240.23 C 248.41 233.70 262.43 235.39 270.06 244.29 C 274.69 240.06 279.24 235.75 283.66 231.31 C 276.90 224.18 267.87 219.09 258.06 217.81 C 245.01 215.82 231.18 220.46 221.94 229.88 Z" />
</g>
<g id="#cb2030ff">
<path fill="#cb2030" opacity="1.00" d=" M 221.94 229.88 C 231.18 220.46 245.01 215.82 258.06 217.81 C 267.87 219.09 276.90 224.18 283.66 231.31 C 279.24 235.75 274.69 240.06 270.06 244.29 C 262.43 235.39 248.41 233.70 238.74 240.23 C 238.75 237.51 238.76 234.80 238.77 232.08 C 233.63 232.05 228.49 232.06 223.35 232.07 C 223.37 249.01 223.40 265.95 223.34 282.89 C 228.49 282.92 233.64 282.92 238.80 282.89 C 238.79 282.00 238.76 280.22 238.74 279.33 C 244.95 283.33 252.91 284.59 259.93 282.08 C 266.22 280.02 271.20 274.99 274.02 269.08 C 266.91 269.01 259.80 269.06 252.69 269.04 C 252.57 263.46 252.63 257.88 252.65 252.31 C 266.44 252.28 280.22 252.25 294.01 252.32 C 296.42 264.90 292.65 278.44 284.18 288.03 C 277.80 295.40 268.84 300.48 259.22 302.09 C 246.30 304.43 232.42 300.19 222.93 291.15 C 215.35 284.13 210.46 274.26 209.56 263.96 C 208.31 251.51 212.99 238.62 221.94 229.88 Z" />
</g>
</svg>
